<svg width="1024" height="1024" viewBox="0 0 1024 1024" fill="none" xmlns="http://www.w3.org/2000/svg">
  <defs>
    <linearGradient id="bg" x1="140" y1="120" x2="884" y2="916" gradientUnits="userSpaceOnUse">
      <stop stop-color="#1E293B"/>
      <stop offset="0.52" stop-color="#0F172A"/>
      <stop offset="1" stop-color="#020617"/>
    </linearGradient>
    <linearGradient id="accent" x1="278" y1="256" x2="762" y2="782" gradientUnits="userSpaceOnUse">
      <stop stop-color="#FDE68A"/>
      <stop offset="0.48" stop-color="#F5C96A"/>
      <stop offset="1" stop-color="#F59E0B"/>
    </linearGradient>
    <filter id="glow" x="190" y="190" width="644" height="644" filterUnits="userSpaceOnUse" color-interpolation-filters="sRGB">
      <feFlood flood-opacity="0" result="BackgroundImageFix"/>
      <feBlend mode="normal" in="SourceGraphic" in2="BackgroundImageFix" result="shape"/>
      <feGaussianBlur stdDeviation="22" result="effect1_foregroundBlur_1_1"/>
    </filter>
  </defs>
  <rect x="72" y="72" width="880" height="880" rx="248" fill="url(#bg)"/>
  <rect x="98" y="98" width="828" height="828" rx="222" stroke="#FFFFFF" stroke-opacity="0.08" stroke-width="4"/>
  <circle cx="752" cy="300" r="58" fill="#FFF7D6" fill-opacity="0.18"/>
  <g filter="url(#glow)">
    <path d="M328 286C328 268.327 342.327 254 360 254H670C687.673 254 702 268.327 702 286V330C702 347.673 687.673 362 670 362H436V450H618C635.673 450 650 464.327 650 482V526C650 543.673 635.673 558 618 558H436V662H676C693.673 662 708 676.327 708 694V738C708 755.673 693.673 770 676 770H360C342.327 770 328 755.673 328 738V286Z" fill="url(#accent)"/>
    <path d="M542 362H676C693.673 362 708 347.673 708 330V286C708 268.327 693.673 254 676 254H542V362Z" fill="#FFF9E7" fill-opacity="0.18"/>
  </g>
  <path d="M582 312C582 294.327 596.327 280 614 280H770C787.673 280 802 294.327 802 312V354C802 371.673 787.673 386 770 386H656V696H778C795.673 696 810 710.327 810 728V770C810 787.673 795.673 802 778 802H614C596.327 802 582 787.673 582 770V312Z" fill="#FFF9E7"/>
  <path d="M716 198C747.481 198 773 223.519 773 255C773 286.481 747.481 312 716 312C684.519 312 659 286.481 659 255C659 223.519 684.519 198 716 198Z" fill="#FDE68A"/>
</svg>
